<svg width="300" height="300" viewBox="0 0 300 300" fill="none" xmlns="http://www.w3.org/2000/svg">
<path d="M259.138 235.92C257.818 235.08 256.558 234.3 255.177 233.52C255.237 230.82 254.998 228.18 254.458 225.6C256.258 224.04 257.998 222.42 259.738 220.8C257.518 216.6 255.298 212.4 253.138 208.2C250.798 208.68 248.518 209.22 246.177 209.82C244.377 207.9 242.338 206.16 240.058 204.72C240.238 202.38 240.358 199.98 240.418 197.58L226.858 193.32C225.538 195.3 224.277 197.34 223.077 199.38C220.377 199.32 217.738 199.56 215.158 200.1C213.598 198.3 211.978 196.56 210.358 194.82L197.758 201.42C198.238 203.76 198.777 206.04 199.377 208.38C197.457 210.18 195.717 212.22 194.277 214.5C191.937 214.32 189.538 214.2 187.138 214.14L182.938 227.7C184.918 229.02 186.958 230.28 188.998 231.48C188.938 234.18 189.178 236.82 189.718 239.4C188.218 240.72 186.717 242.04 185.277 243.42C184.977 243.66 184.738 243.96 184.438 244.2L191.038 256.8C193.378 256.32 195.658 255.78 197.998 255.18C199.798 257.1 201.838 258.84 204.118 260.28C203.938 262.62 203.818 265.02 203.758 267.42L217.318 271.62C218.638 269.64 219.898 267.6 221.098 265.56C223.798 265.62 226.438 265.38 229.018 264.84C230.578 266.64 232.198 268.38 233.818 270.12C238.018 267.9 242.218 265.68 246.418 263.52C245.938 261.18 245.398 258.9 244.798 256.56C246.718 254.76 248.458 252.72 249.898 250.44C252.238 250.62 254.638 250.74 257.038 250.8L261.238 237.24C260.518 236.76 259.858 236.34 259.138 235.86V235.92ZM237.778 237.42C235.077 246.06 225.898 250.92 217.258 248.22C208.618 245.52 203.758 236.34 206.458 227.7C209.158 219.06 218.337 214.2 226.977 216.9C235.617 219.6 240.477 228.78 237.778 237.42Z" fill="url(#paint0_linear_4392_789)"/>
<path d="M287.882 182.1C287.222 181.68 286.502 181.26 285.842 180.84C285.842 179.46 285.782 178.02 285.482 176.7C286.442 175.92 287.342 175.08 288.242 174.18C287.102 171.96 285.962 169.8 284.762 167.58C283.562 167.82 282.362 168.12 281.162 168.42C280.202 167.4 279.122 166.5 277.982 165.78C278.042 164.52 278.102 163.32 278.162 162.06L271.082 159.84C270.422 160.86 269.762 161.94 269.102 163.02C267.722 163.02 266.282 163.08 264.962 163.38C264.182 162.42 263.342 161.52 262.442 160.62L255.842 164.1C256.082 165.3 256.382 166.5 256.682 167.7C255.662 168.66 254.762 169.74 254.042 170.88C252.782 170.82 251.582 170.76 250.322 170.7L248.102 177.78C249.122 178.44 250.202 179.1 251.282 179.76C251.282 181.14 251.342 182.58 251.642 183.9C250.862 184.56 250.082 185.28 249.302 186C249.182 186.12 249.002 186.3 248.882 186.42L252.362 193.02C253.562 192.78 254.762 192.48 255.962 192.18C256.922 193.2 258.002 194.1 259.142 194.82C259.022 196.08 259.022 197.28 258.962 198.54L266.042 200.76C266.702 199.74 267.362 198.66 268.022 197.58C269.402 197.58 270.842 197.52 272.162 197.22C273.002 198.18 273.782 199.08 274.682 199.98C276.902 198.84 279.062 197.7 281.282 196.5C281.042 195.3 280.742 194.1 280.442 192.9C281.462 191.94 282.362 190.86 283.082 189.72C284.342 189.78 285.542 189.84 286.802 189.9L289.022 182.82C288.662 182.58 288.302 182.34 287.942 182.1H287.882ZM276.722 182.88C275.342 187.38 270.542 189.9 265.982 188.52C261.482 187.14 258.962 182.34 260.342 177.78C261.722 173.28 266.522 170.76 271.082 172.14C275.582 173.52 278.102 178.32 276.722 182.88Z" fill="url(#paint1_linear_4392_789)"/>
<path d="M177.96 38.8809H62.7597C49.7368 38.8809 39.1797 49.438 39.1797 62.4609V272.821C39.1797 285.844 49.7368 296.401 62.7597 296.401H177.96C190.983 296.401 201.54 285.844 201.54 272.821V62.4609C201.54 49.438 190.983 38.8809 177.96 38.8809Z" fill="#047758"/>
<path d="M190.198 38.8809H74.998C61.9751 38.8809 51.418 49.438 51.418 62.4609V272.821C51.418 285.844 61.9751 296.401 74.998 296.401H190.198C203.221 296.401 213.778 285.844 213.778 272.821V62.4609C213.778 49.438 203.221 38.8809 190.198 38.8809Z" fill="#06D6A0"/>
<path d="M100.74 52.6802C100.74 59.1002 105.96 64.2602 112.32 64.2602H152.76C159.18 64.2602 164.34 59.0402 164.34 52.6802C164.34 49.6202 166.8 47.2202 169.8 47.2202H187.8C197.52 47.2202 205.38 55.0802 205.38 64.8002V270.6C205.38 280.32 197.52 288.18 187.8 288.18H77.0995C67.3795 288.18 59.5195 280.32 59.5195 270.6V64.7402C59.5195 55.0202 67.3795 47.1602 77.0995 47.1602H95.0995C98.1595 47.1602 100.56 49.6202 100.56 52.6202L100.74 52.6802Z" fill="white"/>
<path d="M88.6225 80.4609H176.342C181.322 80.4609 185.403 84.5409 185.403 89.5209V177.241C185.403 182.221 181.322 186.301 176.342 186.301H88.6225C83.6425 186.301 79.5625 182.221 79.5625 177.241V89.5209C79.5625 84.5409 83.6425 80.4609 88.6225 80.4609Z" fill="#06D6A0"/>
<path d="M96.8424 106.262C96.8424 106.262 85.8624 122.462 85.0224 127.202C82.7424 139.562 94.8624 142.442 103.802 134.702C112.742 126.962 114.302 112.022 114.302 112.022L96.8424 106.322V106.262Z" fill="#EB7F58"/>
<path d="M167.641 116.16C167.641 116.16 177.121 142.38 192.241 132.42C202.921 125.34 186.181 105.42 186.181 105.42L167.641 116.22V116.16Z" fill="#EB7F58"/>
<path d="M163.62 120.6C146.88 105 144.42 88.2604 155.1 77.1004C164.7 67.0204 186.72 100.02 186.72 100.02L190.2 102.12C192.72 103.68 193.44 106.86 191.82 109.38C189 113.76 182.52 120.24 167.7 123.24C166.26 123.54 164.76 122.88 164.16 121.62L163.68 120.66L163.62 120.6Z" fill="#047758"/>
<path d="M128.1 140.521L128.76 148.201L105.84 157.081L99.8398 186.301H170.04L170.88 151.381L158.16 137.281L128.1 140.521Z" fill="#414955"/>
<path d="M171.359 147.961C171.359 147.961 169.799 87.5412 164.759 78.4812C161.339 72.4212 153.479 70.2612 148.019 68.5212C147.539 68.4012 147.119 68.2212 146.699 68.1012C144.779 67.5612 143.579 67.2612 143.579 67.2612L132.239 63.7812L126.059 66.4812C126.059 66.4812 124.979 66.8412 123.299 67.4412C123.059 67.5012 122.819 67.6212 122.519 67.7412C119.879 68.7612 116.039 70.2612 112.019 72.2412C102.839 76.7412 101.999 87.1812 103.919 115.801C105.359 137.401 103.559 147.961 103.559 147.961C87.8391 166.501 191.819 160.381 171.359 147.841V147.961Z" fill="#047758"/>
<path d="M144.058 72.8412L151.078 76.2012C151.318 76.1412 150.298 71.5812 149.038 68.8812C148.678 68.7612 148.318 68.6412 148.018 68.5212C147.538 68.4012 147.118 68.2212 146.698 68.1012C144.778 67.5612 143.578 67.2612 143.578 67.2612L132.238 63.7812L126.058 66.4812C126.058 66.4812 125.038 66.7812 123.418 67.4412C123.838 74.8812 126.598 82.9212 126.598 82.9212L132.298 75.0612L141.538 79.5613L144.178 72.8412H144.058Z" fill="white"/>
<path d="M119.399 43.3805C119.399 43.3805 103.559 25.9205 120.479 18.5405C117.959 13.6805 122.399 10.6205 127.559 12.0605C127.559 12.0605 142.379 -1.73948 155.759 5.88052C165.359 11.3405 162.059 19.6805 162.059 19.6805C166.199 19.3805 166.499 37.9205 151.919 40.7405C142.439 42.6005 119.399 43.3205 119.399 43.3205V43.3805Z" fill="#7D2E12"/>
<path d="M131.7 62.7617L143.58 67.3217C143.58 67.3217 146.22 72.4817 140.04 73.5017C129.48 75.2417 126.18 67.3217 126.18 67.3217L131.76 62.7617H131.7Z" fill="#FEBE9A"/>
<path d="M124.322 42.0598C124.322 42.0598 125.702 55.6798 126.122 67.3798L137.282 68.9398L143.582 67.3798C143.582 67.3798 143.582 66.8998 143.462 66.0598C143.162 62.4598 142.202 52.1998 140.042 44.1598C139.862 43.4398 139.562 42.7798 139.262 42.1798C135.422 34.5598 124.262 42.0598 124.262 42.0598H124.322Z" fill="#FEBE9A"/>
<path d="M143.581 67.3801C143.581 67.3801 143.581 66.9001 143.461 66.0601C143.221 63.3601 142.681 57.0001 141.481 50.5801L130.261 52.2601C130.261 52.2601 128.161 62.2801 143.461 67.3801H143.581Z" fill="#EB7F58"/>
<path d="M159.3 30.1193C160.92 35.2793 161.52 46.4393 160.2 49.8593C157.92 55.6793 153.48 61.9193 142.92 61.6793C132.36 61.4393 128.58 55.7393 125.88 52.5593C124.62 51.1193 123.48 41.9393 123.48 41.9393C127.38 39.4193 130.32 34.2593 126.36 29.6993C122.1 23.8193 149.4 11.9393 159.3 30.1193Z" fill="#FEBE9A"/>
<path d="M129.78 43.5011C129.78 43.5011 124.32 32.4611 117.72 36.9611C112.26 40.6811 115.02 53.5811 127.8 52.0811C137.34 50.9411 129.84 43.5011 129.84 43.5011H129.78Z" fill="#FEBE9A"/>
<path d="M123.9 43.3197C123.9 43.3197 122.4 38.9997 119.04 41.3997C116.1 43.4997 120.18 50.0997 124.26 49.4397L123.9 43.3197Z" fill="#EB7F58"/>
<path d="M117.06 120.66C123.84 106.44 133.14 80.5203 133.14 80.5203C133.14 80.5203 115.02 77.8203 112.26 76.1403C100.14 68.7603 90.5404 103.8 90.5404 103.8L87.5404 106.68C85.3204 108.78 85.2004 112.26 87.2404 114.54C90.8404 118.5 98.3404 124.02 113.52 124.14C115.02 124.14 116.34 123.18 116.7 121.74L117 120.6L117.06 120.66Z" fill="#047758"/>
<path d="M186.302 135.12C200.402 136.02 201.782 112.14 193.502 86.6404L182.702 86.4004C176.162 111.72 177.482 134.58 186.242 135.12H186.302Z" fill="#FEBE9A"/>
<path d="M182.699 86.3999L184.079 81.0599C184.079 81.0599 183.179 73.5599 189.779 71.8199C200.219 69.0599 199.919 77.9999 199.919 77.9999L199.019 83.6999C199.019 83.6999 197.639 85.9799 193.499 86.5799C192.419 92.9399 189.359 93.3599 189.359 93.3599L182.699 86.3399V86.3999Z" fill="#FEBE9A"/>
<path d="M194.742 54.8686L184.766 56.6816L192.157 97.3554L202.134 95.5424L194.742 54.8686Z" fill="#047758"/>
<path d="M194.702 54.8398L184.742 56.6398L187.142 69.7798H197.402L194.702 54.8398Z" fill="#06D6A0"/>
<path d="M202.922 82.98C203.042 84.18 201.902 85.2 199.442 85.38C196.982 85.56 195.722 84.72 195.602 83.52C195.482 82.32 196.622 81.3 199.082 81.12C201.542 80.94 202.802 81.78 202.922 82.98Z" fill="#FEBE9A"/>
<path d="M204.061 79.4998C204.181 81.0598 202.741 82.4398 199.441 82.6798C196.201 82.9198 194.521 81.7798 194.401 80.2198C194.281 78.6598 195.721 77.2798 199.021 77.0398C202.261 76.7998 203.941 77.9398 204.061 79.4998Z" fill="#FEBE9A"/>
<path d="M203.761 75.9002C203.881 77.4602 202.441 78.8402 199.141 79.0802C195.901 79.3202 194.221 78.1802 194.101 76.6202C193.981 75.0602 195.421 73.6802 198.721 73.4402C201.961 73.2002 203.641 74.3402 203.761 75.9002Z" fill="#FEBE9A"/>
<path d="M203.522 72.24C203.642 73.8 202.202 75.18 198.902 75.42C195.662 75.66 193.982 74.52 193.862 72.96C193.742 71.4 195.182 70.02 198.482 69.78C201.722 69.54 203.402 70.68 203.522 72.24Z" fill="#FEBE9A"/>
<path d="M182.999 85.8607C182.999 85.8607 181.739 79.6807 183.599 75.3607C184.379 73.5607 193.019 71.5807 195.539 73.1407C198.059 74.7007 197.279 79.7407 190.619 81.3607C190.619 85.7407 182.999 85.8607 182.999 85.8607Z" fill="#FEBE9A"/>
<path d="M251.911 34.821L243.047 43.0868C242.829 43.2902 242.817 43.6319 243.021 43.85L243.184 44.0255C243.388 44.2436 243.729 44.2556 243.948 44.0522L252.812 35.7864C253.03 35.583 253.042 35.2413 252.838 35.0232L252.674 34.8476C252.471 34.6295 252.129 34.6176 251.911 34.821Z" fill="url(#paint2_linear_4392_789)"/>
<path d="M245.661 56.7362L245.497 56.9117C245.294 57.1298 245.306 57.4715 245.524 57.6749L254.388 65.9407C254.606 66.1441 254.948 66.1322 255.151 65.9141L255.315 65.7386C255.518 65.5205 255.506 65.1788 255.288 64.9754L246.424 56.7095C246.206 56.5061 245.864 56.5181 245.661 56.7362Z" fill="url(#paint3_linear_4392_789)"/>
<path d="M259.792 46.8243L247.867 48.9913C247.574 49.0447 247.379 49.3258 247.432 49.6192L247.475 49.8553C247.529 50.1487 247.81 50.3434 248.103 50.2901L260.028 48.123C260.321 48.0697 260.516 47.7886 260.463 47.4951L260.42 47.259C260.366 46.9656 260.085 46.7709 259.792 46.8243Z" fill="url(#paint4_linear_4392_789)"/>
<path d="M228.238 71.9397L181.378 62.3397C176.758 61.3797 173.398 57.2997 173.398 52.5597C173.398 47.8197 176.758 43.7397 181.378 42.7797L228.238 33.1797V71.9397Z" fill="#047758"/>
<path d="M94.378 122.701C88.918 119.521 83.938 127.201 84.118 130.921C84.598 141.361 102.718 150.781 125.038 158.101L132.118 147.901C106.378 131.581 101.998 127.081 94.378 122.701Z" fill="#FEBE9A"/>
<path d="M131.041 148.02C137.881 145.56 138.781 145.8 141.841 146.04C144.901 146.28 149.461 146.7 151.981 147.42C154.561 148.14 154.021 151.92 142.681 151.92C145.141 154.32 149.641 155.28 154.921 156.06C160.081 156.84 157.201 161.58 154.021 161.76C154.021 165.96 149.761 165 149.761 165C150.241 167.76 145.681 170.04 139.261 167.04C132.961 164.1 122.341 157.02 122.341 157.02C122.341 157.02 114.121 150.24 131.101 147.96L131.041 148.02Z" fill="#FEBE9A"/>
<path d="M229.02 72.3617C234.09 72.3617 238.2 63.497 238.2 52.5617C238.2 41.6265 234.09 32.7617 229.02 32.7617C223.95 32.7617 219.84 41.6265 219.84 52.5617C219.84 63.497 223.95 72.3617 229.02 72.3617Z" fill="white"/>
<path d="M224.58 48.2403L220.14 47.8203C219.96 49.3203 219.84 50.9403 219.84 52.6203C219.84 54.3003 219.96 55.8603 220.14 57.4203L224.58 57.0003C226.8 56.7603 228.54 54.9003 228.54 52.6803C228.54 50.4603 226.86 48.5403 224.58 48.3603V48.2403Z" fill="url(#paint5_linear_4392_789)"/>
<path d="M181.321 208.5H83.4014C81.2414 208.5 79.4414 206.7 79.4414 204.54C79.4414 202.38 81.2414 200.58 83.4014 200.58H181.321C183.481 200.58 185.281 202.38 185.281 204.54C185.281 206.7 183.481 208.5 181.321 208.5Z" fill="#06D6A0"/>
<path d="M181.321 232.619H83.4014C81.2414 232.619 79.4414 230.819 79.4414 228.659C79.4414 226.499 81.2414 224.699 83.4014 224.699H181.321C183.481 224.699 185.281 226.499 185.281 228.659C185.281 230.819 183.481 232.619 181.321 232.619Z" fill="#06D6A0"/>
<path d="M181.321 256.74H83.4014C81.2414 256.74 79.4414 254.94 79.4414 252.78C79.4414 250.62 81.2414 248.82 83.4014 248.82H181.321C183.481 248.82 185.281 250.62 185.281 252.78C185.281 254.94 183.481 256.74 181.321 256.74Z" fill="#06D6A0"/>
<path d="M65.5805 92.1606H31.7405C26.1005 92.1606 21.4805 87.5406 21.4805 81.9006C21.4805 76.2606 26.1005 71.6406 31.7405 71.6406H65.5805C71.2205 71.6406 75.8405 76.2606 75.8405 81.9006C75.8405 87.5406 71.2205 92.1606 65.5805 92.1606Z" fill="#414955"/>
<path d="M62.1602 89.6399L80.8802 94.6799L72.6002 79.9199L62.1602 89.6399Z" fill="#414955"/>
<path d="M40.2008 82.6199C40.2008 84.1199 39.0008 85.3199 37.5008 85.3199C36.0008 85.3199 34.8008 84.1199 34.8008 82.6199C34.8008 81.1199 36.0008 79.9199 37.5008 79.9199C39.0008 79.9199 40.2008 81.1199 40.2008 82.6199Z" fill="white"/>
<path d="M51.3609 82.6199C51.3609 84.1199 50.1609 85.3199 48.6609 85.3199C47.1609 85.3199 45.9609 84.1199 45.9609 82.6199C45.9609 81.1199 47.1609 79.9199 48.6609 79.9199C50.1609 79.9199 51.3609 81.1199 51.3609 82.6199Z" fill="white"/>
<path d="M62.5211 82.6199C62.5211 84.1199 61.3211 85.3199 59.8211 85.3199C58.3211 85.3199 57.1211 84.1199 57.1211 82.6199C57.1211 81.1199 58.3211 79.9199 59.8211 79.9199C61.3211 79.9199 62.5211 81.1199 62.5211 82.6199Z" fill="white"/>
<path d="M242.518 136.199H197.878C195.592 136.199 193.738 138.053 193.738 140.339V161.579C193.738 163.866 195.592 165.719 197.878 165.719H242.518C244.805 165.719 246.658 163.866 246.658 161.579V140.339C246.658 138.053 244.805 136.199 242.518 136.199Z" fill="#047758"/>
<path d="M208.86 153.301H201.66V160.561H208.86V153.301Z" fill="white"/>
<path d="M218.821 148.32H211.621V160.5H218.821V148.32Z" fill="white"/>
<path d="M228.782 144.719H221.582V160.499H228.782V144.719Z" fill="white"/>
<path d="M238.743 141.42H231.543V160.5H238.743V141.42Z" fill="white"/>
<path d="M68.2806 212.76V236.76C68.2806 237.12 68.2806 237.42 68.1606 237.78C67.9806 238.44 67.6806 238.98 67.2006 239.46C66.4806 240.18 65.5206 240.66 64.4406 240.66H21.4806C20.4006 240.66 19.4406 240.24 18.7206 239.46C18.3006 238.98 17.9406 238.44 17.7606 237.78C17.7006 237.48 17.6406 237.12 17.6406 236.76V212.76C17.6406 212.64 17.6406 212.52 17.6406 212.34C17.7006 211.68 17.9406 211.02 18.3606 210.48C19.0806 209.52 20.1606 208.92 21.4206 208.92H64.3806C65.6406 208.92 66.7806 209.52 67.4406 210.48C67.8606 211.02 68.1006 211.68 68.1606 212.34C68.1606 212.46 68.1606 212.58 68.1606 212.76H68.2806Z" fill="url(#paint6_linear_4392_789)"/>
<path d="M38.6417 226.799C38.8817 227.279 38.7617 227.819 38.2817 228.119L37.7417 228.419L18.7217 239.399C18.3017 238.919 17.9417 238.379 17.7617 237.719L36.1217 227.099L37.3217 226.379C37.6817 226.199 38.0417 226.199 38.3417 226.379H38.4617C38.4617 226.499 38.5817 226.619 38.6417 226.679V226.799Z" fill="white"/>
<path d="M68.1016 237.779C67.9216 238.439 67.6216 238.979 67.1416 239.459L48.1216 228.479L47.5816 228.179C47.1016 227.939 46.9816 227.339 47.2216 226.859C47.2816 226.739 47.4016 226.679 47.4616 226.559C47.7616 226.319 48.1816 226.319 48.4816 226.499L49.6816 227.219L68.0416 237.839L68.1016 237.779Z" fill="white"/>
<path d="M67.502 210.539L47.462 226.559L42.902 230.219L38.462 226.679H38.342C38.342 226.619 18.302 210.599 18.302 210.599C17.882 211.139 17.642 211.799 17.582 212.459L36.062 227.219L37.682 228.479L42.302 232.139C42.482 232.259 42.662 232.319 42.902 232.319C43.142 232.319 43.322 232.259 43.502 232.139L48.122 228.479L49.742 227.219L68.222 212.459C68.162 211.799 67.922 211.139 67.502 210.599V210.539Z" fill="white"/>
<path d="M26.3614 172.853C27.1161 169.66 25.1398 166.46 21.9473 165.706C18.7547 164.951 15.5548 166.927 14.8001 170.12C14.0454 173.312 16.0217 176.512 19.2143 177.267C22.4069 178.022 25.6068 176.045 26.3614 172.853Z" fill="#06D6A0"/>
<path d="M259.799 102.599C259.799 104.219 258.539 105.479 256.919 105.479C255.299 105.479 254.039 104.219 254.039 102.599C254.039 100.979 255.299 99.7188 256.919 99.7188C258.539 99.7188 259.799 100.979 259.799 102.599Z" fill="#06D6A0"/>
<path d="M97.0783 13.1387C97.0783 14.9987 95.5183 16.5587 93.6583 16.5587C91.7983 16.5587 90.2383 14.9987 90.2383 13.1387C90.2383 11.2787 91.7983 9.71875 93.6583 9.71875C95.5183 9.71875 97.0783 11.2787 97.0783 13.1387Z" fill="#06D6A0"/>
<path d="M289.321 295.32H10.6211V296.4H289.321V295.32Z" fill="#06D6A0"/>
<defs>
<linearGradient id="paint0_linear_4392_789" x1="222.088" y1="193.32" x2="222.088" y2="271.62" gradientUnits="userSpaceOnUse">
<stop stop-color="#0AD6A1"/>
<stop offset="1" stop-color="#019770"/>
</linearGradient>
<linearGradient id="paint1_linear_4392_789" x1="268.562" y1="159.84" x2="268.562" y2="200.76" gradientUnits="userSpaceOnUse">
<stop stop-color="#0AD6A1"/>
<stop offset="1" stop-color="#019770"/>
</linearGradient>
<linearGradient id="paint2_linear_4392_789" x1="247.479" y1="38.9539" x2="248.38" y2="39.9193" gradientUnits="userSpaceOnUse">
<stop stop-color="#0AD6A1"/>
<stop offset="1" stop-color="#019770"/>
</linearGradient>
<linearGradient id="paint3_linear_4392_789" x1="245.579" y1="56.824" x2="255.233" y2="65.8263" gradientUnits="userSpaceOnUse">
<stop stop-color="#0AD6A1"/>
<stop offset="1" stop-color="#019770"/>
</linearGradient>
<linearGradient id="paint4_linear_4392_789" x1="253.83" y1="47.9078" x2="254.066" y2="49.2065" gradientUnits="userSpaceOnUse">
<stop stop-color="#0AD6A1"/>
<stop offset="1" stop-color="#019770"/>
</linearGradient>
<linearGradient id="paint5_linear_4392_789" x1="224.19" y1="47.8203" x2="224.19" y2="57.4203" gradientUnits="userSpaceOnUse">
<stop stop-color="#0AD6A1"/>
<stop offset="1" stop-color="#019770"/>
</linearGradient>
<linearGradient id="paint6_linear_4392_789" x1="42.9606" y1="208.92" x2="42.9606" y2="240.66" gradientUnits="userSpaceOnUse">
<stop stop-color="#0AD6A1"/>
<stop offset="1" stop-color="#019770"/>
</linearGradient>
</defs>
</svg>
