<svg width="30" height="22" viewBox="0 0 30 22" fill="none" xmlns="http://www.w3.org/2000/svg">
  <path d="M7.53821 9.77209H12.4491C13.1366 9.77209 13.8241 9.23189 14.0206 8.54437C14.1925 7.85684 13.7996 7.31665 13.1121 7.31665H8.20118L7.53821 9.77209ZM4.61623 2.40576H14.438C17.8265 2.40576 19.84 5.15586 18.9315 8.54437C18.023 11.9329 14.5362 14.683 11.1477 14.683H6.23682L4.91089 19.5939H0L4.61623 2.40576ZM29.7278 4.8612L28.6719 8.78991H32.6006L31.422 13.2097H27.4933L26.4374 17.1384H22.0176L23.0735 13.2097H19.1448L20.3234 8.78991H24.2521L25.3079 4.8612H29.7278Z" fill="#06D6A0"/>
</svg>
