<svg width="134" height="22" viewBox="0 0 134 22" fill="none" xmlns="http://www.w3.org/2000/svg">
<path d="M7.53821 9.77209H12.4491C13.1366 9.77209 13.8241 9.23189 14.0206 8.54437C14.1925 7.85684 13.7996 7.31665 13.1121 7.31665H8.20118L7.53821 9.77209ZM4.61623 2.40576H14.438C17.8265 2.40576 19.84 5.15586 18.9315 8.54437C18.023 11.9329 14.5362 14.683 11.1477 14.683H6.23682L4.91089 19.5939H0L4.61623 2.40576ZM29.7278 4.8612L28.6719 8.78991H32.6006L31.422 13.2097H27.4933L26.4374 17.1384H22.0176L23.0735 13.2097H19.1448L20.3234 8.78991H24.2521L25.3079 4.8612H29.7278Z" fill="#06D6A0"/>
<path d="M40.6404 17L42.6467 7.51724H39.2171L39.783 4.82503H50.0203L49.4544 7.51724H46.0248L44.0185 17H40.6404ZM50.0826 17L52.6547 4.82503H58.3478C59.5596 4.82503 60.4856 5.09368 61.1258 5.63098C61.7774 6.15684 62.1032 6.91706 62.1032 7.91164C62.1032 8.60899 61.9603 9.21488 61.6745 9.72931C61.4002 10.2323 61.0058 10.6381 60.4913 10.9468C59.9883 11.244 59.3824 11.4441 58.6736 11.547V11.3755C59.4396 11.4098 59.994 11.5641 60.337 11.8385C60.6914 12.1014 60.8686 12.4958 60.8686 13.0217C60.8686 13.3304 60.84 13.6847 60.7828 14.0849C60.7371 14.4736 60.6857 14.8908 60.6285 15.3367L60.4056 17H56.976L57.2332 15.2852C57.279 14.9766 57.3247 14.6679 57.3704 14.3592C57.4161 14.0391 57.439 13.7876 57.439 13.6047C57.439 13.399 57.3533 13.2218 57.1818 13.0731C57.0217 12.9245 56.7417 12.8502 56.3415 12.8502H54.3181L53.4435 17H50.0826ZM54.884 10.158H56.5988C57.0332 10.158 57.399 10.1066 57.6962 10.0037C58.0049 9.88936 58.2392 9.71788 58.3993 9.48924C58.5593 9.2606 58.6393 8.96337 58.6393 8.59755C58.6393 8.20887 58.5136 7.9345 58.2621 7.77446C58.0106 7.60298 57.6448 7.51724 57.1646 7.51724H55.4498L54.884 10.158ZM62.9991 17L69.841 4.82503H73.665L75.4141 17H72.0531L71.0585 8.52896L66.4972 17H62.9991ZM67.1145 14.9937L68.5721 12.3872H71.7445L72.0531 14.9937H67.1145ZM77.9947 17L80.5669 4.82503H83.9279L81.3557 17H77.9947ZM85.1184 17L87.6906 4.82503H91.0859L93.5552 11.6842L95.0127 4.82503H98.3737L95.8015 17H92.4063L89.8512 10.4838L88.4794 17H85.1184ZM99.5601 17L102.132 4.82503H105.493L102.921 17H99.5601ZM106.684 17L109.256 4.82503H112.651L115.121 11.6842L116.578 4.82503H119.939L117.367 17H113.972L111.417 10.4838L110.045 17H106.684ZM126.137 17.2744C124.616 17.2744 123.507 16.8857 122.81 16.1083C122.113 15.3195 121.764 14.1992 121.764 12.7473C121.764 11.5013 121.913 10.3752 122.21 9.36921C122.519 8.3632 122.97 7.50009 123.565 6.77988C124.159 6.05967 124.896 5.51094 125.777 5.13369C126.668 4.745 127.692 4.55066 128.846 4.55066C129.921 4.55066 130.795 4.72214 131.47 5.0651C132.144 5.40805 132.642 5.91106 132.962 6.57411C133.293 7.22573 133.459 8.03168 133.459 8.99195L129.944 9.12914C129.944 8.51181 129.841 8.04311 129.635 7.72301C129.441 7.40292 129.04 7.24287 128.435 7.24287C127.909 7.24287 127.446 7.36291 127.046 7.60298C126.645 7.84305 126.308 8.19172 126.034 8.649C125.76 9.09484 125.554 9.63214 125.417 10.2609C125.279 10.8896 125.211 11.5927 125.211 12.3701C125.211 13.1932 125.359 13.7705 125.657 14.102C125.965 14.4221 126.388 14.5822 126.926 14.5822C127.349 14.5822 127.726 14.5136 128.057 14.3764C128.389 14.2278 128.675 14.022 128.915 13.7591C129.155 13.4847 129.349 13.1589 129.498 12.7816H127.2L127.663 10.5524H133.15L131.796 17H129.772L130.115 14.4964L130.492 14.5993C130.275 15.1366 129.949 15.6053 129.515 16.0054C129.092 16.4055 128.589 16.7199 128.006 16.9486C127.434 17.1658 126.811 17.2744 126.137 17.2744Z" fill="white"/>
</svg>
