<svg width="267" height="44" viewBox="0 0 267 44" fill="none" xmlns="http://www.w3.org/2000/svg">
<path d="M14.9827 19.5598H24.7435C26.11 19.5598 27.4765 18.4861 27.8669 17.1196C28.2085 15.7531 27.4277 14.6794 26.0611 14.6794H16.3004L14.9827 19.5598ZM9.17509 4.9187H28.6965C35.4315 4.9187 39.4334 10.3847 37.6276 17.1196C35.8219 23.8545 28.8918 29.3205 22.1569 29.3205H12.3961L9.76073 39.0813H0L9.17509 4.9187ZM59.086 9.79907L56.9875 17.6076H64.7961L62.4535 26.3923H54.6449L52.5463 34.2009H43.7616L45.8602 26.3923H38.0516L40.3942 17.6076H48.2028L50.3013 9.79907H59.086Z" fill="#06D6A0"/>
<mask id="path-2-outside-1_1165_1032" maskUnits="userSpaceOnUse" x="75.5269" y="8" width="191" height="28" fill="black">
<rect fill="white" x="75.5269" y="8" width="191" height="28"/>
<path d="M80.7756 34L84.7632 15.1523H77.9467L79.0714 9.80139H99.4187L98.294 15.1523H91.4775L87.4898 34H80.7756ZM99.5425 34L104.655 9.80139H115.97C118.379 9.80139 120.219 10.3353 121.492 11.4033C122.787 12.4485 123.434 13.9595 123.434 15.9362C123.434 17.3223 123.15 18.5265 122.582 19.549C122.037 20.5488 121.253 21.3554 120.231 21.9689C119.231 22.5596 118.027 22.9573 116.618 23.1617V22.8209C118.14 22.8891 119.242 23.1958 119.924 23.7412C120.628 24.2637 120.98 25.0476 120.98 26.0928C120.98 26.7063 120.924 27.4107 120.81 28.206C120.719 28.9785 120.617 29.8078 120.503 30.694L120.06 34H113.244L113.755 30.5917C113.846 29.9783 113.937 29.3648 114.028 28.7513C114.119 28.1151 114.164 27.6152 114.164 27.2517C114.164 26.8427 113.994 26.4905 113.653 26.1951C113.335 25.8997 112.778 25.752 111.983 25.752H107.961L106.223 34H99.5425ZM109.086 20.4011H112.494C113.357 20.4011 114.084 20.2988 114.675 20.0943C115.289 19.8671 115.754 19.5263 116.073 19.0718C116.391 18.6174 116.55 18.0266 116.55 17.2995C116.55 16.527 116.3 15.9817 115.8 15.6636C115.3 15.3228 114.573 15.1523 113.619 15.1523H110.21L109.086 20.4011ZM125.215 34L138.814 9.80139H146.414L149.891 34H143.211L141.234 17.1632L132.168 34H125.215ZM133.395 30.0123L136.292 24.8318H142.597L143.211 30.0123H133.395ZM155.02 34L160.132 9.80139H166.812L161.7 34H155.02ZM169.179 34L174.291 9.80139H181.04L185.947 23.4344L188.844 9.80139H195.525L190.412 34H183.664L178.586 21.0486L175.859 34H169.179ZM197.883 34L202.995 9.80139H209.675L204.563 34H197.883ZM212.042 34L217.154 9.80139H223.902L228.81 23.4344L231.707 9.80139H238.387L233.275 34H226.527L221.448 21.0486L218.722 34H212.042ZM250.706 34.5453C247.684 34.5453 245.48 33.7728 244.094 32.2277C242.708 30.6599 242.015 28.4332 242.015 25.5475C242.015 23.0709 242.31 20.8328 242.901 18.8333C243.514 16.8338 244.412 15.1183 245.593 13.6868C246.775 12.2553 248.24 11.1647 249.99 10.4149C251.762 9.64233 253.796 9.25607 256.091 9.25607C258.226 9.25607 259.965 9.59689 261.305 10.2785C262.646 10.9602 263.634 11.9599 264.27 13.2778C264.929 14.5729 265.259 16.1748 265.259 18.0834L258.272 18.3561C258.272 17.1291 258.067 16.1975 257.658 15.5613C257.272 14.9251 256.477 14.607 255.273 14.607C254.227 14.607 253.307 14.8456 252.512 15.3228C251.717 15.7999 251.046 16.4929 250.501 17.4018C249.956 18.2879 249.547 19.3559 249.274 20.6056C249.001 21.8552 248.865 23.2526 248.865 24.7977C248.865 26.4337 249.161 27.5811 249.751 28.24C250.365 28.8763 251.205 29.1944 252.273 29.1944C253.114 29.1944 253.864 29.058 254.523 28.7854C255.182 28.49 255.75 28.081 256.227 27.5584C256.704 27.0131 257.09 26.3655 257.386 25.6157H252.819L253.739 21.185H264.645L261.953 34H257.931L258.613 29.0239L259.363 29.2284C258.931 30.2964 258.283 31.228 257.42 32.0232C256.579 32.8185 255.579 33.4433 254.421 33.8978C253.285 34.3295 252.046 34.5453 250.706 34.5453Z"/>
</mask>
<path d="M80.7756 34L79.5526 33.7413L79.2334 35.25H80.7756V34ZM84.7632 15.1523L85.9862 15.4111L86.3054 13.9023H84.7632V15.1523ZM77.9467 15.1523L76.7234 14.8952L76.4067 16.4023H77.9467V15.1523ZM79.0714 9.80139V8.55139H78.0569L77.8482 9.54427L79.0714 9.80139ZM99.4187 9.80139L100.642 10.0585L100.959 8.55139H99.4187V9.80139ZM98.294 15.1523V16.4023H99.3086L99.5173 15.4095L98.294 15.1523ZM91.4775 15.1523V13.9023H90.4643L90.2546 14.8936L91.4775 15.1523ZM87.4898 34V35.25H88.503L88.7128 34.2587L87.4898 34ZM80.7756 34L81.9985 34.2587L85.9862 15.4111L84.7632 15.1523L83.5403 14.8936L79.5526 33.7413L80.7756 34ZM84.7632 15.1523V13.9023H77.9467V15.1523V16.4023H84.7632V15.1523ZM77.9467 15.1523L79.17 15.4095L80.2947 10.0585L79.0714 9.80139L77.8482 9.54427L76.7234 14.8952L77.9467 15.1523ZM79.0714 9.80139V11.0514H99.4187V9.80139V8.55139H79.0714V9.80139ZM99.4187 9.80139L98.1955 9.54427L97.0707 14.8952L98.294 15.1523L99.5173 15.4095L100.642 10.0585L99.4187 9.80139ZM98.294 15.1523V13.9023H91.4775V15.1523V16.4023H98.294V15.1523ZM91.4775 15.1523L90.2546 14.8936L86.2669 33.7413L87.4898 34L88.7128 34.2587L92.7004 15.4111L91.4775 15.1523ZM87.4898 34V32.75H80.7756V34V35.25H87.4898V34ZM99.5425 34L98.3195 33.7416L98.0009 35.25H99.5425V34ZM104.655 9.80139V8.55139H103.641L103.432 9.543L104.655 9.80139ZM121.492 11.4033L120.688 12.3607L120.697 12.3685L120.707 12.376L121.492 11.4033ZM122.582 19.549L121.49 18.9419L121.485 18.9504L122.582 19.549ZM120.231 21.9689L120.867 23.045L120.874 23.0407L120.231 21.9689ZM116.618 23.1617H115.368V24.6063L116.797 24.3988L116.618 23.1617ZM116.618 22.8209L116.674 21.5722L115.368 21.5137V22.8209H116.618ZM119.924 23.7411L119.143 24.7172L119.161 24.7315L119.179 24.745L119.924 23.7411ZM120.81 28.206L119.573 28.0292L119.57 28.0445L119.569 28.0599L120.81 28.206ZM120.503 30.694L121.742 30.86L121.743 30.8529L120.503 30.694ZM120.06 34V35.25H121.154L121.299 34.166L120.06 34ZM113.244 34L112.008 33.8146L111.792 35.25H113.244V34ZM113.755 30.5917L114.991 30.7772L114.991 30.7749L113.755 30.5917ZM114.028 28.7513L115.264 28.9345L115.265 28.9281L114.028 28.7513ZM113.653 26.1951L112.802 27.1111L112.818 27.1257L112.834 27.1397L113.653 26.1951ZM107.961 25.752V24.502H106.947L106.738 25.4943L107.961 25.752ZM106.223 34V35.25H107.237L107.446 34.2578L106.223 34ZM109.086 20.4011L107.863 20.1391L107.539 21.6511H109.086V20.4011ZM114.675 20.0943L115.084 21.2756L115.097 21.2712L115.109 21.2665L114.675 20.0943ZM116.073 19.0718L117.097 19.7887V19.7887L116.073 19.0718ZM115.8 15.6636L115.096 16.6964L115.112 16.7075L115.129 16.7182L115.8 15.6636ZM110.21 15.1523V13.9023H109.2L108.988 14.8904L110.21 15.1523ZM99.5425 34L100.766 34.2584L105.878 10.0598L104.655 9.80139L103.432 9.543L98.3195 33.7416L99.5425 34ZM104.655 9.80139V11.0514H115.97V9.80139V8.55139H104.655V9.80139ZM115.97 9.80139V11.0514C118.214 11.0514 119.723 11.5508 120.688 12.3607L121.492 11.4033L122.295 10.4458C120.715 9.11984 118.544 8.55139 115.97 8.55139V9.80139ZM121.492 11.4033L120.707 12.376C121.651 13.1384 122.184 14.2583 122.184 15.9362H123.434H124.684C124.684 13.6606 123.922 11.7585 122.277 10.4305L121.492 11.4033ZM123.434 15.9362H122.184C122.184 17.1492 121.937 18.1368 121.49 18.9419L122.582 19.549L123.675 20.156C124.364 18.9163 124.684 17.4953 124.684 15.9362H123.434ZM122.582 19.549L121.485 18.9504C121.051 19.7454 120.429 20.3924 119.588 20.897L120.231 21.9689L120.874 23.0407C122.078 22.3183 123.023 21.3521 123.68 20.1476L122.582 19.549ZM120.231 21.9689L119.595 20.8927C118.763 21.3842 117.721 21.7385 116.438 21.9247L116.618 23.1617L116.797 24.3988C118.332 24.176 119.699 23.735 120.867 23.045L120.231 21.9689ZM116.618 23.1617H117.868V22.8209H116.618H115.368V23.1617H116.618ZM116.618 22.8209L116.562 24.0697C117.995 24.1338 118.772 24.4207 119.143 24.7172L119.924 23.7411L120.705 22.7651C119.712 21.9709 118.285 21.6443 116.674 21.5722L116.618 22.8209ZM119.924 23.7411L119.179 24.745C119.503 24.9851 119.73 25.3577 119.73 26.0928H120.98H122.23C122.23 24.7376 121.754 23.5424 120.669 22.7373L119.924 23.7411ZM120.98 26.0928H119.73C119.73 26.6323 119.68 27.2757 119.573 28.0292L120.81 28.206L122.047 28.3827C122.167 27.5457 122.23 26.7803 122.23 26.0928H120.98ZM120.81 28.206L119.569 28.0599C119.478 28.8276 119.377 29.6526 119.263 30.535L120.503 30.694L121.743 30.8529C121.857 29.9631 121.96 29.1294 122.051 28.352L120.81 28.206ZM120.503 30.694L119.264 30.528L118.821 33.834L120.06 34L121.299 34.166L121.742 30.86L120.503 30.694ZM120.06 34V32.75H113.244V34V35.25H120.06V34ZM113.244 34L114.48 34.1854L114.991 30.7772L113.755 30.5917L112.519 30.4063L112.008 33.8146L113.244 34ZM113.755 30.5917L114.991 30.7749C115.082 30.1614 115.173 29.548 115.264 28.9345L114.028 28.7513L112.791 28.5681C112.7 29.1816 112.609 29.7951 112.518 30.4086L113.755 30.5917ZM114.028 28.7513L115.265 28.9281C115.359 28.2704 115.414 27.7027 115.414 27.2517H114.164H112.914C112.914 27.5277 112.878 27.9597 112.79 28.5745L114.028 28.7513ZM114.164 27.2517H115.414C115.414 26.4403 115.055 25.7559 114.471 25.2505L113.653 26.1951L112.834 27.1397C112.896 27.1931 112.91 27.2235 112.911 27.2252C112.912 27.227 112.912 27.2276 112.912 27.2287C112.912 27.2299 112.914 27.2368 112.914 27.2517H114.164ZM113.653 26.1951L114.503 25.2791C113.826 24.6498 112.858 24.502 111.983 24.502V25.752V27.002C112.31 27.002 112.534 27.0332 112.676 27.071C112.819 27.1088 112.834 27.1408 112.802 27.1111L113.653 26.1951ZM111.983 25.752V24.502H107.961V25.752V27.002H111.983V25.752ZM107.961 25.752L106.738 25.4943L105 33.7422L106.223 34L107.446 34.2578L109.184 26.0098L107.961 25.752ZM106.223 34V32.75H99.5425V34V35.25H106.223V34ZM109.086 20.4011V21.6511H112.494V20.4011V19.1511H109.086V20.4011ZM112.494 20.4011V21.6511C113.447 21.6511 114.322 21.5393 115.084 21.2756L114.675 20.0943L114.266 18.9131C113.847 19.0584 113.267 19.1511 112.494 19.1511V20.4011ZM114.675 20.0943L115.109 21.2665C115.917 20.9672 116.608 20.4866 117.097 19.7887L116.073 19.0718L115.049 18.355C114.901 18.566 114.66 18.767 114.241 18.9221L114.675 20.0943ZM116.073 19.0718L117.097 19.7887C117.601 19.0676 117.8 18.2041 117.8 17.2995H116.55H115.3C115.3 17.8492 115.18 18.1672 115.049 18.355L116.073 19.0718ZM116.55 17.2995H117.8C117.8 16.246 117.44 15.2254 116.471 14.609L115.8 15.6636L115.129 16.7182C115.16 16.738 115.3 16.8081 115.3 17.2995H116.55ZM115.8 15.6636L116.504 14.6308C115.708 14.0883 114.69 13.9023 113.619 13.9023V15.1523V16.4023C114.455 16.4023 114.892 16.5572 115.096 16.6964L115.8 15.6636ZM113.619 15.1523V13.9023H110.21V15.1523V16.4023H113.619V15.1523ZM110.21 15.1523L108.988 14.8904L107.863 20.1391L109.086 20.4011L110.308 20.663L111.433 15.4143L110.21 15.1523ZM125.215 34L124.125 33.3876L123.079 35.25H125.215V34ZM138.814 9.80139V8.55139H138.083L137.724 9.189L138.814 9.80139ZM146.414 9.80139L147.652 9.62363L147.498 8.55139H146.414V9.80139ZM149.891 34V35.25H151.333L151.128 33.8222L149.891 34ZM143.211 34L141.969 34.1458L142.099 35.25H143.211V34ZM141.234 17.1632L142.475 17.0175L142.013 13.0797L140.133 16.5706L141.234 17.1632ZM132.168 34V35.25H132.914L133.268 34.5926L132.168 34ZM133.395 30.0123L132.304 29.4022L131.264 31.2623H133.395V30.0123ZM136.292 24.8318V23.5818H135.559L135.201 24.2217L136.292 24.8318ZM142.597 24.8318L143.838 24.6848L143.708 23.5818H142.597V24.8318ZM143.211 30.0123V31.2623H144.617L144.452 29.8653L143.211 30.0123ZM125.215 34L126.305 34.6124L139.904 10.4138L138.814 9.80139L137.724 9.189L124.125 33.3876L125.215 34ZM138.814 9.80139V11.0514H146.414V9.80139V8.55139H138.814V9.80139ZM146.414 9.80139L145.177 9.97914L148.653 34.1778L149.891 34L151.128 33.8222L147.652 9.62363L146.414 9.80139ZM149.891 34V32.75H143.211V34V35.25H149.891V34ZM143.211 34L144.452 33.8542L142.475 17.0175L141.234 17.1632L139.992 17.309L141.969 34.1458L143.211 34ZM141.234 17.1632L140.133 16.5706L131.067 33.4074L132.168 34L133.268 34.5926L142.334 17.7558L141.234 17.1632ZM132.168 34V32.75H125.215V34V35.25H132.168V34ZM133.395 30.0123L134.486 30.6224L137.383 25.4419L136.292 24.8318L135.201 24.2217L132.304 29.4022L133.395 30.0123ZM136.292 24.8318V26.0818H142.597V24.8318V23.5818H136.292V24.8318ZM142.597 24.8318L141.356 24.9788L141.969 30.1593L143.211 30.0123L144.452 29.8653L143.838 24.6848L142.597 24.8318ZM143.211 30.0123V28.7623H133.395V30.0123V31.2623H143.211V30.0123ZM155.02 34L153.797 33.7416L153.478 35.25H155.02V34ZM160.132 9.80139V8.55139H159.119L158.909 9.543L160.132 9.80139ZM166.812 9.80139L168.035 10.0598L168.354 8.55139H166.812V9.80139ZM161.7 34V35.25H162.714L162.923 34.2584L161.7 34ZM155.02 34L156.243 34.2584L161.355 10.0598L160.132 9.80139L158.909 9.543L153.797 33.7416L155.02 34ZM160.132 9.80139V11.0514H166.812V9.80139V8.55139H160.132V9.80139ZM166.812 9.80139L165.589 9.543L160.477 33.7416L161.7 34L162.923 34.2584L168.035 10.0598L166.812 9.80139ZM161.7 34V32.75H155.02V34V35.25H161.7V34ZM169.179 34L167.956 33.7416L167.637 35.25H169.179V34ZM174.291 9.80139V8.55139H173.278L173.068 9.543L174.291 9.80139ZM181.04 9.80139L182.216 9.37799L181.918 8.55139H181.04V9.80139ZM185.947 23.4344L184.771 23.8578L186.258 27.9871L187.17 23.6942L185.947 23.4344ZM188.844 9.80139V8.55139H187.832L187.622 9.54156L188.844 9.80139ZM195.525 9.80139L196.748 10.0598L197.066 8.55139H195.525V9.80139ZM190.412 34V35.25H191.426L191.635 34.2584L190.412 34ZM183.664 34L182.5 34.4563L182.811 35.25H183.664V34ZM178.586 21.0486L179.749 20.5923L178.223 16.7009L177.362 20.7911L178.586 21.0486ZM175.859 34V35.25H176.873L177.082 34.2575L175.859 34ZM169.179 34L170.402 34.2584L175.514 10.0598L174.291 9.80139L173.068 9.543L167.956 33.7416L169.179 34ZM174.291 9.80139V11.0514H181.04V9.80139V8.55139H174.291V9.80139ZM181.04 9.80139L179.863 10.2248L184.771 23.8578L185.947 23.4344L187.124 23.011L182.216 9.37799L181.04 9.80139ZM185.947 23.4344L187.17 23.6942L190.067 10.0612L188.844 9.80139L187.622 9.54156L184.725 23.1746L185.947 23.4344ZM188.844 9.80139V11.0514H195.525V9.80139V8.55139H188.844V9.80139ZM195.525 9.80139L194.302 9.543L189.189 33.7416L190.412 34L191.635 34.2584L196.748 10.0598L195.525 9.80139ZM190.412 34V32.75H183.664V34V35.25H190.412V34ZM183.664 34L184.828 33.5437L179.749 20.5923L178.586 21.0486L177.422 21.5049L182.5 34.4563L183.664 34ZM178.586 21.0486L177.362 20.7911L174.636 33.7425L175.859 34L177.082 34.2575L179.809 21.3061L178.586 21.0486ZM175.859 34V32.75H169.179V34V35.25H175.859V34ZM197.883 34L196.66 33.7416L196.341 35.25H197.883V34ZM202.995 9.80139V8.55139H201.982L201.772 9.543L202.995 9.80139ZM209.675 9.80139L210.898 10.0598L211.217 8.55139H209.675V9.80139ZM204.563 34V35.25H205.576L205.786 34.2584L204.563 34ZM197.883 34L199.106 34.2584L204.218 10.0598L202.995 9.80139L201.772 9.543L196.66 33.7416L197.883 34ZM202.995 9.80139V11.0514H209.675V9.80139V8.55139H202.995V9.80139ZM209.675 9.80139L208.452 9.543L203.34 33.7416L204.563 34L205.786 34.2584L210.898 10.0598L209.675 9.80139ZM204.563 34V32.75H197.883V34V35.25H204.563V34ZM212.042 34L210.819 33.7416L210.5 35.25H212.042V34ZM217.154 9.80139V8.55139H216.14L215.931 9.543L217.154 9.80139ZM223.902 9.80139L225.078 9.37799L224.781 8.55139H223.902V9.80139ZM228.81 23.4344L227.634 23.8578L229.121 27.9871L230.033 23.6942L228.81 23.4344ZM231.707 9.80139V8.55139H230.695L230.485 9.54156L231.707 9.80139ZM238.387 9.80139L239.61 10.0598L239.929 8.55139H238.387V9.80139ZM233.275 34V35.25H234.289L234.498 34.2584L233.275 34ZM226.527 34L225.363 34.4563L225.674 35.25H226.527V34ZM221.448 21.0486L222.612 20.5923L221.086 16.7009L220.225 20.7911L221.448 21.0486ZM218.722 34V35.25H219.736L219.945 34.2575L218.722 34ZM212.042 34L213.265 34.2584L218.377 10.0598L217.154 9.80139L215.931 9.543L210.819 33.7416L212.042 34ZM217.154 9.80139V11.0514H223.902V9.80139V8.55139H217.154V9.80139ZM223.902 9.80139L222.726 10.2248L227.634 23.8578L228.81 23.4344L229.986 23.011L225.078 9.37799L223.902 9.80139ZM228.81 23.4344L230.033 23.6942L232.93 10.0612L231.707 9.80139L230.485 9.54156L227.588 23.1746L228.81 23.4344ZM231.707 9.80139V11.0514H238.387V9.80139V8.55139H231.707V9.80139ZM238.387 9.80139L237.164 9.543L232.052 33.7416L233.275 34L234.498 34.2584L239.61 10.0598L238.387 9.80139ZM233.275 34V32.75H226.527V34V35.25H233.275V34ZM226.527 34L227.69 33.5437L222.612 20.5923L221.448 21.0486L220.285 21.5049L225.363 34.4563L226.527 34ZM221.448 21.0486L220.225 20.7911L217.499 33.7425L218.722 34L219.945 34.2575L222.672 21.3061L221.448 21.0486ZM218.722 34V32.75H212.042V34V35.25H218.722V34ZM244.094 32.2277L243.157 33.0557L243.163 33.0624L244.094 32.2277ZM242.901 18.8333L241.706 18.4666L241.702 18.4791L242.901 18.8333ZM245.593 13.6868L246.557 14.4825V14.4825L245.593 13.6868ZM249.99 10.4149L250.482 11.5638L250.489 11.5607L249.99 10.4149ZM261.305 10.2785L261.872 9.16431V9.16431L261.305 10.2785ZM264.27 13.2778L263.145 13.8212L263.15 13.833L263.156 13.8446L264.27 13.2778ZM265.259 18.0834L265.308 19.3325L266.509 19.2856V18.0834H265.259ZM258.272 18.3561H257.022V19.6558L258.321 19.6052L258.272 18.3561ZM257.658 15.5613L256.59 16.2101L256.598 16.2238L256.607 16.2373L257.658 15.5613ZM252.512 15.3228L251.869 14.2509H251.869L252.512 15.3228ZM250.501 17.4018L251.566 18.057L251.573 18.0449L250.501 17.4018ZM249.274 20.6056L248.053 20.3391V20.3391L249.274 20.6056ZM249.751 28.24L248.821 29.0745L248.836 29.0914L248.851 29.1077L249.751 28.24ZM254.523 28.7854L255.001 29.9404L255.018 29.9334L255.034 29.926L254.523 28.7854ZM256.227 27.5584L257.15 28.4012L257.159 28.3915L257.168 28.3815L256.227 27.5584ZM257.386 25.6157L258.549 26.0738L259.222 24.3657H257.386V25.6157ZM252.819 25.6157L251.595 25.3615L251.282 26.8657H252.819V25.6157ZM253.739 21.185V19.935H252.722L252.515 20.9308L253.739 21.185ZM264.645 21.185L265.869 21.442L266.185 19.935H264.645V21.185ZM261.953 34V35.25H262.967L263.176 34.257L261.953 34ZM257.931 34L256.693 33.8304L256.498 35.25H257.931V34ZM258.613 29.0239L258.942 27.818L257.568 27.4433L257.374 28.8543L258.613 29.0239ZM259.363 29.2284L260.521 29.6969L261.049 28.3926L259.691 28.0225L259.363 29.2284ZM257.42 32.0232L256.573 31.1038L256.567 31.1094L256.561 31.1151L257.42 32.0232ZM254.421 33.8978L254.865 35.0663L254.877 35.0615L254.421 33.8978ZM250.706 34.5453V33.2953C247.874 33.2953 246.082 32.572 245.024 31.393L244.094 32.2277L243.163 33.0624C244.878 34.9736 247.493 35.7953 250.706 35.7953V34.5453ZM244.094 32.2277L245.03 31.3998C243.911 30.1345 243.265 28.244 243.265 25.5475H242.015H240.765C240.765 28.6223 241.504 31.1853 243.157 33.0556L244.094 32.2277ZM242.015 25.5475H243.265C243.265 23.169 243.548 21.0528 244.099 19.1874L242.901 18.8333L241.702 18.4791C241.072 20.6128 240.765 22.9728 240.765 25.5475H242.015ZM242.901 18.8333L244.096 19.1999C244.667 17.3374 245.493 15.7724 246.557 14.4825L245.593 13.6868L244.629 12.8911C243.331 14.4641 242.361 16.3301 241.706 18.4666L242.901 18.8333ZM245.593 13.6868L246.557 14.4825C247.609 13.2087 248.911 12.2372 250.482 11.5638L249.99 10.4149L249.497 9.26594C247.57 10.0922 245.941 11.302 244.629 12.8911L245.593 13.6868ZM249.99 10.4149L250.489 11.5607C252.077 10.8685 253.936 10.5061 256.091 10.5061V9.25607V8.00607C253.656 8.00607 251.447 8.41618 249.49 9.269L249.99 10.4149ZM256.091 9.25607V10.5061C258.107 10.5061 259.632 10.8299 260.739 11.3928L261.305 10.2785L261.872 9.16431C260.298 8.36392 258.346 8.00607 256.091 8.00607V9.25607ZM261.305 10.2785L260.739 11.3928C261.843 11.9542 262.631 12.7569 263.145 13.8212L264.27 13.2778L265.396 12.7344C264.638 11.1629 263.449 9.96623 261.872 9.16431L261.305 10.2785ZM264.27 13.2778L263.156 13.8446C263.702 14.9179 264.009 16.3124 264.009 18.0834H265.259H266.509C266.509 16.0372 266.156 14.228 265.385 12.711L264.27 13.2778ZM265.259 18.0834L265.21 16.8344L258.223 17.1071L258.272 18.3561L258.321 19.6052L265.308 19.3325L265.259 18.0834ZM258.272 18.3561H259.522C259.522 17.0245 259.306 15.8128 258.71 14.8854L257.658 15.5613L256.607 16.2373C256.829 16.5823 257.022 17.2337 257.022 18.3561H258.272ZM257.658 15.5613L258.727 14.9126C257.999 13.7131 256.632 13.357 255.273 13.357V14.607V15.857C256.322 15.857 256.546 16.1371 256.59 16.2101L257.658 15.5613ZM255.273 14.607V13.357C254.03 13.357 252.882 13.6429 251.869 14.2509L252.512 15.3228L253.155 16.3946C253.732 16.0483 254.425 15.857 255.273 15.857V14.607ZM252.512 15.3228L251.869 14.2509C250.874 14.8479 250.065 15.6992 249.429 16.7587L250.501 17.4018L251.573 18.0449C252.028 17.2866 252.559 16.752 253.155 16.3946L252.512 15.3228ZM250.501 17.4018L249.437 16.7467C248.803 17.7765 248.349 18.9823 248.053 20.3391L249.274 20.6056L250.495 20.872C250.745 19.7294 251.109 18.7994 251.566 18.0569L250.501 17.4018ZM249.274 20.6056L248.053 20.3391C247.758 21.6922 247.615 23.1809 247.615 24.7977H248.865H250.115C250.115 23.3244 250.245 22.0183 250.495 20.872L249.274 20.6056ZM248.865 24.7977H247.615C247.615 26.5095 247.909 28.0581 248.821 29.0745L249.751 28.24L250.682 27.4056C250.412 27.1041 250.115 26.3578 250.115 24.7977H248.865ZM249.751 28.24L248.851 29.1077C249.749 30.038 250.942 30.4444 252.273 30.4444V29.1944V27.9444C251.469 27.9444 250.981 27.7145 250.651 27.3724L249.751 28.24ZM252.273 29.1944V30.4444C253.249 30.4444 254.166 30.2859 255.001 29.9404L254.523 28.7854L254.045 27.6303C253.562 27.8301 252.979 27.9444 252.273 27.9444V29.1944ZM254.523 28.7854L255.034 29.926C255.846 29.5621 256.555 29.0529 257.15 28.4012L256.227 27.5584L255.304 26.7156C254.945 27.1091 254.518 27.4179 254.012 27.6447L254.523 28.7854ZM256.227 27.5584L257.168 28.3815C257.749 27.7168 258.207 26.9423 258.549 26.0738L257.386 25.6157L256.223 25.1575C255.974 25.7887 255.659 26.3094 255.286 26.7353L256.227 27.5584ZM257.386 25.6157V24.3657H252.819V25.6157V26.8657H257.386V25.6157ZM252.819 25.6157L254.043 25.8699L254.963 21.4391L253.739 21.185L252.515 20.9308L251.595 25.3615L252.819 25.6157ZM253.739 21.185V22.435H264.645V21.185V19.935H253.739V21.185ZM264.645 21.185L263.422 20.9279L260.73 33.743L261.953 34L263.176 34.257L265.869 21.442L264.645 21.185ZM261.953 34V32.75H257.931V34V35.25H261.953V34ZM257.931 34L259.17 34.1696L259.851 29.1936L258.613 29.0239L257.374 28.8543L256.693 33.8304L257.931 34ZM258.613 29.0239L258.284 30.2299L259.034 30.4344L259.363 29.2284L259.691 28.0225L258.942 27.818L258.613 29.0239ZM259.363 29.2284L258.204 28.76C257.843 29.653 257.303 30.4314 256.573 31.1038L257.42 32.0232L258.267 32.9426C259.264 32.0245 260.019 30.9398 260.521 29.6969L259.363 29.2284ZM257.42 32.0232L256.561 31.1151C255.845 31.792 254.985 32.3337 253.964 32.734L254.421 33.8978L254.877 35.0615C256.174 34.5529 257.313 33.8449 258.279 32.9313L257.42 32.0232ZM254.421 33.8978L253.977 32.7293C252.996 33.1018 251.91 33.2953 250.706 33.2953V34.5453V35.7953C252.182 35.7953 253.573 35.5571 254.865 35.0662L254.421 33.8978Z" fill="#0A1221" mask="url(#path-2-outside-1_1165_1032)"/>
</svg>
